<svg xmlns="http://www.w3.org/2000/svg" viewBox="0 0 360 210" width="360" height="210">
  <defs>
    <linearGradient id="bgSla" x1="0%" y1="0%" x2="100%" y2="100%">
      <stop offset="0%" stop-color="#0b1329" />
      <stop offset="100%" stop-color="#070b18" />
    </linearGradient>
    <linearGradient id="resinGrad" x1="0%" y1="0%" x2="100%" y2="0%">
      <stop offset="0%" stop-color="#059669" />
      <stop offset="50%" stop-color="#10b981" />
      <stop offset="100%" stop-color="#059669" />
    </linearGradient>
    <filter id="uvGlow">
      <feGaussianBlur stdDeviation="4" result="blur" />
      <feMerge>
        <feMergeNode in="blur" />
        <feMergeNode in="SourceGraphic" />
      </feMerge>
    </filter>
  </defs>

  <rect width="100%" height="100%" fill="url(#bgSla)" rx="10" stroke="#1e293b" stroke-width="1.5" />

  <line x1="20" y1="50" x2="340" y2="50" stroke="#1e293b" stroke-width="1" stroke-dasharray="4,4" />
  <line x1="20" y1="100" x2="340" y2="100" stroke="#1e293b" stroke-width="1" stroke-dasharray="4,4" />
  <line x1="20" y1="150" x2="340" y2="150" stroke="#1e293b" stroke-width="1" stroke-dasharray="4,4" />

  <rect x="55" y="145" width="250" height="18" fill="#1e293b" rx="3" stroke="#334155" stroke-width="1" />
  <rect x="62" y="140" width="236" height="8" fill="url(#resinGrad)" opacity="0.9" filter="url(#uvGlow)" />

  <polygon points="180,165 130,135 230,135" fill="#a855f7" opacity="0.45" filter="url(#uvGlow)" />

  <rect x="110" y="32" width="140" height="14" fill="#334155" rx="3" stroke="#475569" stroke-width="1" />
  <rect x="173" y="10" width="14" height="22" fill="#64748b" rx="2" />

  <path d="M155,46 L205,46 L198,80 L188,80 L194,118 L166,118 L172,80 L162,80 Z" fill="#34d399" stroke="#10b981" stroke-width="2" filter="url(#uvGlow)" />
  <circle cx="180" cy="62" r="11" fill="#6ee7b7" />

  <rect x="70" y="178" width="220" height="22" fill="#0f172a" rx="11" stroke="#334155" stroke-width="1" />
  <text x="180" y="193" text-anchor="middle" font-family="'JetBrains Mono', monospace" font-size="11" font-weight="bold" fill="#34d399" letter-spacing="1">SLA / DLP ФОТОПОЛІМЕРНИЙ ДРУК</text>
</svg>
